<?xml version="1.0" encoding="UTF-8" standalone="no"?><!DOCTYPE svg PUBLIC "-//W3C//DTD SVG 1.1//EN" "http://www.w3.org/Graphics/SVG/1.1/DTD/svg11.dtd"><svg width="100%" height="100%" viewBox="0 0 256 256" version="1.1" xmlns="http://www.w3.org/2000/svg" xmlns:xlink="http://www.w3.org/1999/xlink" xml:space="preserve" xmlns:serif="http://www.serif.com/" style="fill-rule:evenodd;clip-rule:evenodd;stroke-linecap:round;stroke-linejoin:round;stroke-miterlimit:1.5;"><g id="頭"><path d="M40.57,219.683c22.835,22.361 80.814,0.238 129.392,-49.372c48.579,-49.61 69.479,-108.041 46.644,-130.402c-22.835,-22.36 -80.814,-0.237 -129.393,49.373c-48.578,49.61 -69.479,108.041 -46.643,130.401Z" style="fill:#d3a42a;stroke:#7e7300;stroke-width:1px;"/><path d="M209.693,43.486c35.47,34.419 27.318,100.441 -18.194,147.344c-45.512,46.902 -111.259,57.038 -146.729,22.619c-35.471,-34.418 -27.318,-100.441 18.194,-147.343c45.512,-46.903 111.259,-57.038 146.729,-22.62Z" style="fill:#ffd800;stroke:#525d00;stroke-width:1px;"/></g><g id="顔"><g id="左目"><circle cx="159.993" cy="132.883" r="32.923" style="fill:#fff;"/><circle cx="159.219" cy="133.348" r="20.683"/></g><g id="右目"><circle cx="96.781" cy="85.474" r="32.923" style="fill:#fff;"/><circle cx="96.626" cy="84.7" r="20.683"/></g><g id="口"><path d="M93.001,155.732c23.079,7.748 38.376,24.289 34.137,36.915c-4.238,12.626 -26.417,16.587 -49.496,8.84c-23.079,-7.748 -38.375,-24.289 -34.137,-36.915c4.239,-12.626 26.417,-16.587 49.496,-8.84Z" style="fill:#ff4b00;"/><path d="M83.055,173.678c13.535,5.022 22.355,14.942 19.685,22.137c-2.67,7.196 -15.827,8.96 -29.361,3.938c-13.535,-5.023 -22.355,-14.943 -19.685,-22.138c2.67,-7.196 15.827,-8.96 29.361,-3.937Z" style="fill:#ffa782;"/></g></g></svg>