<svg
  display="none"
  width="0"
  height="0"
  version="1.1"
  xmlns="http://www.w3.org/2000/svg"
  xmlns:xlink="http://www.w3.org/1999/xlink"
  style="fill-rule:evenodd;clip-rule:evenodd;stroke-linejoin:round;stroke-miterlimit:2;">
  <defs>
    <symbol id="plus" viewBox="0 0 48 48">
      <path d="M22.5,25.5L17,25.5L17,22.5L22.5,22.5L22.5,17L25.5,17L25.5,22.5L31,22.5L31,25.5L25.5,25.5L25.5,31L22.5,31L22.5,25.5Z" style="fill:white;"/>
    </symbol>
    <symbol id="chance" viewBox="0 0 48 48">
      <path d="M37.232,31.066C34.704,35.786 29.725,39 24,39C15.721,39 9,32.279 9,24C9,15.721 15.721,9 24,9C29.699,9 34.659,12.185 37.198,16.87L34.966,19.102C33.09,14.913 28.883,11.991 24,11.991C17.372,11.991 11.991,17.372 11.991,24C11.991,30.628 17.372,36.009 24,36.009C28.91,36.009 33.136,33.056 34.996,28.83L37.232,31.066Z" style="fill:white;"/>
    </symbol>
    <symbol id="red" viewBox="0 0 48 48">
      <circle cx="24" cy="24" r="20" style="fill:rgb(172,0,0);"/>
    </symbol>
    <symbol id="blue" viewBox="0 0 48 48">
      <circle cx="24" cy="24" r="20" style="fill:rgb(0,44,172);"/>
    </symbol>
    <symbol id="green" viewBox="0 0 48 48">
      <circle cx="24" cy="24" r="20" style="fill:rgb(0,172,26);"/>
    </symbol>
    <symbol id="yellow" viewBox="0 0 48 48">
      <circle cx="24" cy="24" r="20" style="fill:rgb(172,160,0);"/>
    </symbol>
    <symbol id="purple" viewBox="0 0 48 48">
      <circle cx="24" cy="24" r="20" style="fill:rgb(133,0,172);"/>
    </symbol>
    <symbol id="heart" viewBox="0 0 48 48">
      <g>
        <path d="M43.049,8.629L43.049,39.42C43.049,41.423 41.423,43.049 39.42,43.049L8.629,43.049C6.626,43.049 5,41.423 5,39.42L5,8.629C5,6.626 6.626,5 8.629,5L39.42,5C41.423,5 43.049,6.626 43.049,8.629Z" style="fill:rgb(217,117,194);"/>
        <path d="M8,18C8,14.16 11.611,11 16,11C20.389,11 24,14.16 24,18C24,14.16 27.611,11 32,11C36.389,11 40,14.16 40,18C40,25 34.667,32 24,39C13.333,32 8,25 8,18Z" style="fill:rgb(230,183,219);fill-rule:nonzero;"/>
      </g>
    </symbol>
    <symbol id="prism" viewBox="0 0 48 48">
      <g>
        <path d="M12.389,7.718C15.664,5.378 19.672,4 24,4C28.38,4 32.433,5.411 35.729,7.803L23.977,23.827L12.389,7.718Z" style="fill:rgb(172,0,0);"/>
        <path d="M35.729,7.803C40.739,11.439 44,17.342 44,24C44,26.161 43.656,28.243 43.021,30.194L23.955,23.857L35.729,7.803Z" style="fill:rgb(0,44,172);"/>
        <path d="M23.921,23.892L43.021,30.217C40.406,38.214 32.858,44 23.966,44C23.96,44 23.955,44 23.95,44L23.829,24.017L23.921,23.892Z" style="fill:rgb(0,172,26);"/>
        <path d="M23.864,24.133L23.985,44C15.076,43.993 7.522,38.149 4.945,30.088L23.864,24.133Z" style="fill:rgb(172,160,0);"/>
        <path d="M23.864,23.982L23.862,23.985L23.864,23.982L23.864,24.133L4.945,30.088C4.331,28.168 4,26.123 4,24C4,17.29 7.312,11.347 12.389,7.718L23.977,23.827L23.955,23.857L23.863,23.827L23.862,23.679L23.863,23.827L23.726,23.781L23.863,23.827L23.864,23.982Z" style="fill:rgb(133,0,172);"/>
      </g>
    </symbol>
    <symbol id="ojama" viewBox="0 0 48 48">
      <circle cx="24" cy="24" r="20" style="fill:rgb(102,102,102);"/>
    </symbol>
    <symbol id="kata" viewBox="0 0 48 48">
      <path d="M43.049,8.629L43.049,39.42C43.049,41.423 41.423,43.049 39.42,43.049L8.629,43.049C6.626,43.049 5,41.423 5,39.42L5,8.629C5,6.626 6.626,5 8.629,5L39.42,5C41.423,5 43.049,6.626 43.049,8.629Z" style="fill:rgb(80,80,80);"/>
    </symbol>
    <symbol id="padding" viewBox="0 0 48 48">
      <path d="M43.049,8.629L43.049,39.42C43.049,41.423 41.423,43.049 39.42,43.049L8.629,43.049C6.626,43.049 5,41.423 5,39.42L5,8.629C5,6.626 6.626,5 8.629,5L39.42,5C41.423,5 43.049,6.626 43.049,8.629Z" style="fill:rgb(34,34,34);"/>
    </symbol>
    <symbol id="boostArea" viewBox="0 0 48 48">
      <path d="M8,0L0,8L0,0L8,0Z" style="fill:rgb(160,160,160);"/>
    </symbol>
  </defs>
</svg>